PathFileType	4	(X/Y/Z)	C:/Users/opensim2020/Desktop/walking_exp_matlab/subject02_walking06_straight_01.trc																																																																																																																									
DataRate	CameraRate	NumFrames	NumMarkers	Units	OrigDataRate	OrigDataStartFrame	OrigNumFrames																																																																																																																					
100	100	4	41	mm	100	806	205																																																																																																																					
Frame#	Time	LFHD			RFHD			LBHD			RBHD			C7			T10			CLAV			STRN			RBAK			LSHO			LUPA			LELB			LFRM			LWRA			LWRB			LFIN			RSHO			RUPA			RELB			RFRM			RWRA			RWRB			RFIN			LASI			RASI			LPSI			RPSI			LTHI			LKNE			LTIB			LANK			LHEE			LTOE			RTHI			RKNE			RTIB			RANK			RHEE			RTOE			*39			*40		
		X1	Y1	Z1	X2	Y2	Z2	X3	Y3	Z3	X4	Y4	Z4	X5	Y5	Z5	X6	Y6	Z6	X7	Y7	Z7	X8	Y8	Z8	X9	Y9	Z9	X10	Y10	Z10	X11	Y11	Z11	X12	Y12	Z12	X13	Y13	Z13	X14	Y14	Z14	X15	Y15	Z15	X16	Y16	Z16	X17	Y17	Z17	X18	Y18	Z18	X19	Y19	Z19	X20	Y20	Z20	X21	Y21	Z21	X22	Y22	Z22	X23	Y23	Z23	X24	Y24	Z24	X25	Y25	Z25	X26	Y26	Z26	X27	Y27	Z27	X28	Y28	Z28	X29	Y29	Z29	X30	Y30	Z30	X31	Y31	Z31	X32	Y32	Z32	X33	Y33	Z33	X34	Y34	Z34	X35	Y35	Z35	X36	Y36	Z36	X37	Y37	Z37	X38	Y38	Z38	X39	Y39	Z39	X40	Y40	Z40	X41	Y41	Z41
																																																																																																																												
52	0.51	-596.86859	1750.44897	1439.04602	-604.08276	1725.4585	1581.10437	-717.88159	1663.95691	1419.14294	-738.16882	1636.67676	1558.66956	-770.19324	1529.98242	1489.91125	-840.98608	1260.45337	1503.12805	-636.37976	1455.27588	1473.85181	-596.11188	1279.30225	1483.33008	-835.11084	1364.84766	1563.25623	-707.08185	1501.47241	1307.24133	-757.93195	1310.78564	1221.64368	-790.00592	1174.71509	1204.49768	-802.00067	1043.11401	1183.93262	-760.37408	911.21863	1198.73828	-810.89569	920.65808	1175.24084	-798.48151	855.96722	1164.09033	-682.09039	1495.28479	1671.66272	-700.46649	1312.41272	1771.54761	-675.03253	1168.68359	1801.74719	-628.60553	1057.76392	1821.48242	-565.06982	938.80994	1800.77319	-606.7475	930.15466	1838.57666	-558.586	876.23572	1840.86133	-622.68396	992.08514	1359.11719	-616.18097	970.85962	1614.09668	-829.25183	1038.12378	1444.97046	-829.44476	1037.49878	1561.1051	-615.46875	694.51666	1288.50867	-582.68048	504.27863	1313.72485	-670.54565	335.89423	1326.80566	-707.02258	117.21492	1360.948	-732.87964	96.05317	1421.0874	-575.01111	47.50036	1319.32397	-707.69177	666.71686	1663.20898	-726.25153	458.62219	1613.69958	-781.39325	277.60361	1615.10938	-815.91095	88.40217	1569.13293	-856.68945	36.09827	1513.89893	-665.54352	32.84472	1577.31763	-709.2876	1801.77551	1524.51062	2845.15381	1033.88281	-3360.24707
53	0.52	-588.64685	1749.79407	1438.3739	-595.24371	1725.46912	1580.80334	-709.52954	1663.49207	1419.41553	-729.44171	1636.64636	1559.06396	-761.55792	1529.69177	1490.59668	-832.63226	1260.29883	1503.52991	-627.72284	1454.9436	1474.55579	-587.66437	1278.82495	1484.45715	-826.89215	1365.10571	1564.38342	-698.59851	1500.78735	1307.93994	-750.97327	1310.547	1222.42981	-783.94696	1174.82996	1205.4834	-797.34705	1043.54297	1184.62732	-756.05841	911.55627	1197.71338	-807.51117	921.0697	1175.23047	-795.19159	856.35223	1163.84985	-673.38739	1495.42456	1672.0708	-689.72858	1312.56543	1772.69714	-662.52655	1169.10938	1802.92175	-614.58069	1058.64587	1821.71838	-549.36224	940.76343	1800.57397	-590.60083	931.46667	1838.89392	-541.67804	878.28644	1840.54431	-613.52991	991.82446	1359.93237	-608.99017	970.26617	1615.26563	-820.71307	1037.77563	1445.01709	-821.61658	1037.09375	1561.05945	-604.56689	695.1217	1289.8606	-571.79016	503.84738	1315.72693	-651.17926	330.15073	1326.96484	-675.89386	109.56379	1359.39392	-701.05804	87.54384	1419.36328	-540.31671	45.8877	1318.18848	-703.09131	666.40973	1663.48132	-722.9364	458.44431	1614.08484	-779.70679	277.81345	1614.99133	-815.4704	88.86433	1568.81848	-855.93005	36.3923	1513.58008	-665.57733	32.82901	1577.51917	-700.61774	1801.89685	1524.31262	2845.27515	1033.79932	-3360.23145
54	0.53	-580.19568	1749.22778	1437.93481	-586.35309	1725.3678	1580.41797	-701.22101	1662.86914	1419.59778	-720.62958	1636.5575	1559.4231	-752.87769	1529.33765	1491.12659	-824.2196	1260.02673	1503.75989	-618.9635	1454.47363	1475.21606	-578.92432	1278.37744	1485.60657	-818.0589	1364.50391	1564.74329	-690.04352	1500.02161	1308.55005	-743.67743	1310.31079	1223.25476	-777.73334	1174.87415	1206.27966	-792.18457	1043.61292	1185.06848	-751.84125	911.0246	1196.77478	-803.6012	921.34198	1175.65417	-792.30554	856.64954	1163.58582	-664.5119	1495.40515	1672.5802	-679.01782	1312.69385	1773.61536	-649.9743	1169.45898	1803.85864	-600.32794	1059.62549	1822.29578	-534.01355	942.55695	1800.18835	-574.54846	932.72363	1839.04773	-524.90247	880.17188	1840.00183	-604.35632	991.46185	1360.69482	-601.76678	969.8382	1616.36877	-812.12018	1037.38843	1444.90112	-813.94843	1036.75806	1560.8573	-594.4696	695.24548	1290.80334	-561.37506	503.09714	1317.61499	-631.57629	324.76523	1327.16602	-644.61719	102.86797	1357.89197	-669.24866	79.69289	1417.03064	-505.78195	45.41335	1317.24744	-698.37866	666.04578	1663.78223	-719.85114	458.08066	1614.09631	-777.97052	278.10828	1614.82288	-814.95941	89.33996	1568.46252	-855.60748	37.17794	1512.96716	-665.35309	32.67111	1577.69336	-691.92664	1801.53125	1523.99207	NaN	NaN	NaN
55	0.54	-571.72455	1748.60632	1437.43445	-577.45502	1725.21021	1580.01807	-692.71149	1662.12451	1419.74316	-711.75897	1636.3009	1559.70471	-744.0777	1528.84656	1491.52734	-815.86633	1259.73584	1503.82788	-610.16125	1453.95117	1475.7804	-570.28088	1277.76807	1486.63147	-809.37103	1364.28503	1565.25806	-681.24866	1499.23621	1309.05225	-735.72919	1309.96216	1224.15442	-771.09717	1174.83948	1207.11218	-786.95728	1043.8822	1185.63171	-748.22656	910.87152	1196.11694	-799.57391	921.60779	1175.64673	-789.1521	856.85931	1163.38928	-655.44849	1495.31201	1673.0144	-668.41003	1312.75464	1774.33167	-637.492	1169.75427	1804.76379	-586.39154	1060.41162	1822.46313	-518.62341	944.29462	1799.67468	-558.71149	933.97278	1838.9657	-508.47552	882.01874	1839.23267	-595.13837	991.01105	1361.53296	-594.49304	969.46069	1617.34656	-803.46375	1036.93298	1444.5437	-806.31372	1036.23157	1560.33911	-584.62952	695.06854	1291.80457	-551.06976	501.92056	1319.31238	-612.17969	319.55582	1327.43689	-613.84961	97.21278	1356.12683	-637.3371	72.69643	1415.62134	-471.75961	46.1888	1316.28101	-693.60309	665.63977	1663.97791	-716.36127	458.05783	1614.42664	-776.23157	278.39108	1614.57092	-814.4978	89.9225	1568.04492	-855.12372	37.90373	1512.32031	-665.19324	32.62664	1577.86572	-683.18707	1801.25208	1523.69666	NaN	NaN	NaN
